<?xml version="1.0" encoding="UTF-8"?>
<svg id="Capa_1" data-name="Capa 1" xmlns="http://www.w3.org/2000/svg" viewBox="0 0 306.82 306.82">
  <defs>
    <style>
      .cls-1, .cls-2 {
        stroke-width: 0px;
      }

      .cls-2 {
        fill: #fff;
      }
    </style>
  </defs>
  <circle class="cls-1" cx="153.41" cy="153.41" r="153.41"/>
  <g>
    <path class="cls-2" d="M201.03,95.37c-5.82,0-10.54,4.72-10.54,10.54s4.72,10.55,10.54,10.55,10.55-4.72,10.55-10.55-4.72-10.54-10.55-10.54Z"/>
    <path class="cls-2" d="M154.15,108.9c-24.43,0-44.3,19.87-44.3,44.3s19.87,44.3,44.3,44.3,44.3-19.87,44.3-44.3-19.87-44.3-44.3-44.3ZM154.15,181.57c-15.65,0-28.38-12.73-28.38-28.37s12.73-28.37,28.38-28.37,28.37,12.73,28.37,28.37-12.73,28.37-28.37,28.37Z"/>
    <path class="cls-2" d="M189.31,243.13h-71.81c-29.79,0-54.03-24.24-54.03-54.03v-71.82c0-29.79,24.24-54.03,54.03-54.03h71.81c29.79,0,54.03,24.24,54.03,54.03v71.82c0,29.79-24.24,54.03-54.03,54.03ZM117.5,80.18c-20.46,0-37.11,16.64-37.11,37.11v71.82c0,20.46,16.64,37.11,37.11,37.11h71.81c20.46,0,37.11-16.65,37.11-37.11v-71.82c0-20.46-16.65-37.11-37.11-37.11h-71.81Z"/>
  </g>
</svg>