<?xml version="1.0" encoding="UTF-8"?>
<svg id="Capa_1" data-name="Capa 1" xmlns="http://www.w3.org/2000/svg" viewBox="0 0 306.82 306.82">
  <defs>
    <style>
      .cls-1, .cls-2 {
        stroke-width: 0px;
      }

      .cls-2 {
        fill: #fff;
      }
    </style>
  </defs>
  <path class="cls-1" d="M306.82,153.41C306.82,68.68,238.14,0,153.41,0S0,68.68,0,153.41c0,76.57,56.1,140.04,129.44,151.55v-107.2h-38.95v-44.35h38.95v-33.8c0-38.45,22.9-59.69,57.94-59.69,16.78,0,34.34,3,34.34,3v37.75h-19.34c-19.06,0-25,11.83-25,23.96v28.78h42.55l-6.8,44.35h-35.74v107.2c73.34-11.51,129.44-74.97,129.44-151.55Z"/>
  <path class="cls-2" d="M213.12,197.75l6.8-44.35h-42.55v-28.78c0-12.13,5.94-23.96,25-23.96h19.34v-37.75s-17.56-3-34.34-3c-35.04,0-57.94,21.24-57.94,59.69v33.8h-38.95v44.35h38.95v107.2c7.81,1.23,15.82,1.86,23.97,1.86s16.16-.64,23.97-1.86v-107.2h35.74Z"/>
</svg>