<?xml version="1.0" encoding="UTF-8"?>
<svg id="_图层_2" data-name="图层 2" xmlns="http://www.w3.org/2000/svg" viewBox="0 0 31.66 27.21">
  <defs>
    <style>
      .cls-1 {
        fill: #231815;
      }
    </style>
  </defs>
  <g id="_图层_1-2" data-name="图层 1">
    <path class="cls-1" d="m12.83,27.21v-4.75h-.15c-.28,0-.55,0-.82.02-.25,0-.49.02-.73.02-.3,0-.59-.01-.87-.06-.67-.1-1.34-.28-1.99-.44-.45-.11-.9-.23-1.35-.32-.27-.06-.51-.08-.73-.08-.19,0-.36.02-.51.07-.44.13-.88.29-1.31.46-.35.13-.69.27-1.05.38-.23.07-.46.11-.68.11-.7,0-1.27-.4-1.56-1.09-.41-.97-.73-1.86-.99-2.74-.16-.56-.13-1.08.09-1.47.19-.34.52-.58.96-.7,2.08-.55,3.03-1.77,3.9-3.57,1.77-3.68,4.04-7.1,6.22-10.28,1.22-1.78,2.83-2.76,4.53-2.76s3.38,1,4.66,2.81c.39.54.72,1.14,1.05,1.72.17.3.34.59.51.88.34.57.69,1.15,1.04,1.72.76,1.25,1.52,2.5,2.25,3.78.44.77.84,1.56,1.23,2.36.31.62.62,1.24.96,1.86.16.3.49.58.82.7.43.16.87.28,1.31.39.26.07.53.14.78.22.97.29,1.39.95,1.21,1.9-.2,1.05-.49,2.14-.88,3.34-.2.62-.65.95-1.3.95-.11,0-.23-.01-.35-.03-.22-.04-.44-.1-.66-.17-.13-.04-.25-.07-.38-.11l-.51-.13c-.77-.21-1.49-.4-2.27-.4-.64,0-1.25.14-1.84.42-.66.31-1.5.34-2.3.34h-.72c-.35,0-.71,0-1.07.03h-.14v4.65h-6.37Zm3.2-11.01c-.89,0-1.56.6-1.59,1.42-.06,1.88-.05,3.72-.04,5.66,0,.74,0,2.37,0,2.37h3.21v-2.35c0-1.87.01-3.7-.01-5.53-.01-.93-.58-1.53-1.5-1.57h-.08Zm11.74.94l-.08.02-.02.07-1.22,3.32,2.94.81.05-.12c.74-1.74,1.02-2.61.71-3.19-.27-.5-.97-.71-2.23-.94h-.07s-.09.03-.09.03Zm-24.01-.25c-.24.13-.53.25-.83.37-.73.3-1.42.58-1.48,1.03-.11.88.39,2.14,1.11,2.81.09.08.21.12.37.12.35,0,.85-.19,1.34-.38.28-.11.56-.22.79-.28l.15-.04-1.3-3.7-.15.08ZM15.79,1.6c-.97,0-1.89.49-2.67,1.41-.62.74-1.12,1.59-1.6,2.42-.19.33-.38.66-.58.98-.65,1.06-1.3,2.12-1.94,3.18l-1.16,1.91c-.18.3-.38.6-.58.9-.42.63-.86,1.29-1.17,2-.78,1.77-.5,3.6.79,5.16.74.89,1.75,1.33,3.07,1.33.38,0,.78-.03,1.23-.11l.2-.03-.09-.18c-1.77-3.65-1.48-6.35.89-8.25,1.07-.86,2.34-1.31,3.68-1.31s2.61.45,3.68,1.31c2.39,1.92,2.66,4.57.85,8.34l-.1.21h1.32c2.38,0,3.51-.87,4.2-3.22.5-1.7-.03-3.08-.98-4.63-.77-1.26-1.54-2.53-2.3-3.8-.84-1.4-1.68-2.8-2.54-4.2-.42-.68-.93-1.47-1.56-2.12-.81-.84-1.72-1.29-2.64-1.29Zm.09,10.38c-1.38,0-2.72.62-3.66,1.69-.88,1-1.28,2.36-1.09,3.74.15,1.15.68,2.11,1.46,2.63l.24.16v-.29c-.13-2.74.01-5.02,2.98-5.21.13,0,.26-.01.38-.01.94,0,1.63.25,2.12.75.91.93.98,2.68.93,4.27v.46s.27-.37.27-.37c1.7-2.24,1.44-5.07-.63-6.75-.87-.7-1.9-1.07-2.99-1.07Z"/>
  </g>
</svg>