<?xml version="1.0" encoding="UTF-8"?>
<svg id="_图层_2" data-name="图层 2" xmlns="http://www.w3.org/2000/svg" viewBox="0 0 27.35 27.35">
  <defs>
    <style>
      .cls-1 {
        fill: #231815;
      }
    </style>
  </defs>
  <g id="_图层_1-2" data-name="图层 1">
    <path class="cls-1" d="m18.46,0c1.46,0,2.66,1.14,2.73,2.6v.14s0,.68,0,.68c0,.92-.47,1.79-1.24,2.29l-.13.08v5.3c2.55.58,4.46,2.72,4.75,5.32h1.4v-.68c0-.38.31-.68.68-.68s.68.31.68.68v2.73c0,.38-.31.68-.68.68s-.68-.31-.68-.68v-.68h-1.37v6.15c0,.73-.29,1.42-.8,1.93-.51.51-1.21.8-1.93.8h-1.37c0,.38-.31.68-.68.68s-.68-.31-.68-.68H5.47c0,.38-.31.68-.68.68s-.68-.31-.68-.68h-1.37c-.73,0-1.42-.29-1.93-.8s-.8-1.21-.8-1.93v-6.84c0-2.87,1.99-5.36,4.79-6v-5.3c-.8-.46-1.31-1.29-1.36-2.21v-.16s0-.68,0-.68C3.42,1.28,4.56.08,6.02,0h.14s12.31,0,12.31,0Zm4.79,23.25H1.37v.68c0,.76.61,1.37,1.37,1.37h19.14c.76,0,1.37-.61,1.37-1.37v-.68Zm-4.79-10.94H6.15c-1.27,0-2.49.5-3.38,1.4-.9.9-1.4,2.11-1.4,3.38v4.79h21.88v-4.79c0-1.27-.5-2.49-1.4-3.38-.9-.9-2.11-1.4-3.38-1.4h0Zm-12.31,2.05c1.51,0,2.73,1.22,2.73,2.73s-1.22,2.73-2.73,2.73-2.73-1.22-2.73-2.73,1.22-2.73,2.73-2.73h0Zm0,1.37c-.66,0-1.23.48-1.35,1.13-.12.65.26,1.3.88,1.52.62.23,1.32-.03,1.65-.6h-1.18c-.38,0-.68-.31-.68-.68s.31-.68.68-.68h1.18c-.24-.42-.7-.68-1.18-.68h0ZM18.46,1.37H6.15c-.72,0-1.31.55-1.36,1.26v.1s0,.68,0,.68c0,.59.37,1.1.91,1.29.25.09.43.32.45.58v.08s0,.1,0,.1v5.47h12.31v-5.47s0-.05,0-.07c-.02-.3.17-.59.46-.69.51-.18.87-.64.91-1.18v-.11s0-.68,0-.68c0-.76-.61-1.37-1.37-1.37h0Zm-2.05,4.28c.18.05.32.16.42.32.09.16.12.34.07.52l-.35,1.32c-.1.36-.47.58-.84.48-.36-.1-.58-.47-.48-.83l.35-1.32c.05-.18.16-.32.32-.42.16-.09.34-.12.52-.07h0Zm-3.42,0c.18.05.32.16.42.32.09.16.12.34.07.52l-.35,1.32c-.1.36-.47.58-.84.48-.36-.1-.58-.47-.48-.83l.35-1.32c.05-.18.16-.32.32-.42.16-.09.34-.12.52-.07h0Zm-3.42,0c.18.05.32.16.42.32.09.16.12.34.07.52l-.35,1.32c-.1.36-.47.58-.84.48-.36-.1-.58-.47-.48-.83l.35-1.32c.05-.18.16-.32.32-.42.16-.09.34-.12.52-.07h0Z"/>
  </g>
</svg>