<?xml version="1.0" encoding="UTF-8"?>
<svg id="_图层_2" data-name="图层 2" xmlns="http://www.w3.org/2000/svg" viewBox="0 0 22.65 27.35">
  <defs>
    <style>
      .cls-1 {
        fill: #231815;
      }
    </style>
  </defs>
  <g id="_图层_1-2" data-name="图层 1">
    <path class="cls-1" d="m21.28,9.32c-.94-2.85-2.32-5.1-4.2-6.88-3.32-3.13-7.71-3.26-11.17-.32-1.63,1.38-2.91,3.15-3.8,5.26-2.68,6.33-2.8,12.85-.37,19.37.22.59.74.59.98.59,2.18,0,4.36,0,6.54,0h2.01s2.02,0,2.02,0c2.19,0,4.38,0,6.57,0h0c.34,0,.8-.08,1-.71.13-.41.27-.83.41-1.23.26-.74.53-1.51.71-2.29,1.05-4.53.81-9.18-.72-13.81Zm-1.53,16.56c-.05.13-.05.13-.23.13-1.52,0-3.04,0-4.57,0-.62,0-1.23,0-1.85,0h-1.85s-1.5,0-1.5,0c-2.24,0-4.49,0-6.73,0-.05,0-.14,0-.15,0,0,0-.01-.01-.03-.06C.57,19.45.86,13.11,3.71,7.12c.88-1.85,2.1-3.34,3.63-4.44,2.73-1.95,5.8-1.82,8.42.36,1.74,1.45,3.02,3.33,3.92,5.75,2.16,5.85,2.19,11.6.08,17.08Z"/>
    <path class="cls-1" d="m11.35,5.41c-4.61-.01-8.4,3.76-8.41,8.38,0,4.66,3.75,8.44,8.39,8.44,4.61,0,8.38-3.77,8.39-8.41.01-4.62-3.75-8.41-8.37-8.42Zm-.53.55v3.87c-.53-.05-1.04-.09-1.6-.15.33-1.17.62-2.28.96-3.37.05-.14.36-.2.64-.35Zm0,4.51v2.24c-.8-.09-1.56-.17-2.37-.26.21-.75.4-1.43.59-2.13.6.05,1.18.1,1.78.15Zm-1.32-4.19c-.32,1.15-.62,2.21-.94,3.36-1.01-.32-1.98-.62-3.04-.96,1.14-1.24,2.4-2,3.98-2.4Zm-5.14,4.16c.22-.44.49-.86.71-1.25,1.15.38,2.21.73,3.31,1.09-.18.63-.36,1.29-.57,2.05-.65-.23-1.29-.42-1.89-.68-.5-.22-.98-.52-1.44-.82-.09-.06-.16-.29-.12-.38Zm-.43.97c1.24.54,2.43,1.07,3.68,1.62-.16.58-.34,1.22-.53,1.91-1.27-.39-2.42-.93-3.35-1.87-.06-.07-.1-.21-.08-.3.09-.47.2-.94.28-1.35Zm6.87,4.84v2.15c-1.3-.02-2.56-.23-3.84-.63.19-.68.37-1.34.55-1.97,1.12.15,2.19.3,3.29.45Zm-4.93,3s-.09.03-.14.04c-.44-.6-.88-1.21-1.31-1.81.03-.02.06-.04.09-.07.5.23,1,.46,1.49.71.07.03.13.18.12.26-.06.3-.16.58-.24.87Zm-1.86-3.04c-.06-.05-.12-.13-.13-.2-.13-.69-.26-1.38-.38-2.06,1.16.6,2.24,1.16,3.37,1.75-.15.55-.33,1.18-.52,1.87-.89-.33-1.66-.76-2.34-1.35Zm6.79,5.37c-1.6-.12-3.01-.66-4.26-1.64-.07-.05-.13-.19-.11-.27.1-.41.22-.82.33-1.19,1.36.22,2.68.44,4.04.66v2.43Zm0-5.98c-1.04-.14-2.05-.28-3.13-.42.2-.74.39-1.4.58-2.09.85.09,1.69.19,2.55.28v2.24Zm6.32-6.91c-1.11.35-2.12.66-3.19,1-.33-1.18-.64-2.27-.97-3.45,1.64.37,2.96,1.16,4.16,2.45Zm-5.62,6.93v-2.24c.89-.09,1.77-.17,2.71-.27.18.65.37,1.32.59,2.11-1.12.14-2.19.27-3.3.4Zm3.47.23c.17.62.36,1.27.55,1.96-1.32.43-2.64.59-4.02.61v-2.16c1.17-.14,2.29-.27,3.47-.41Zm-3.48-3.12v-2.23c.66-.05,1.29-.09,1.95-.14.19.69.38,1.37.6,2.14-.87.08-1.69.15-2.54.23Zm-.01-6.58c.64-.17.76-.1.92.49.28,1,.56,2,.86,3.08-.61.05-1.18.09-1.78.13v-3.71Zm4.45,13.91c-.9.84-3.09,1.59-4.44,1.53v-2.41c1.41-.21,2.79-.41,4.23-.63.1.35.23.77.33,1.2.02.09-.04.24-.11.31Zm.71-.6c-.12-.43-.23-.8-.34-1.18.63-.3,1.22-.58,1.89-.9-.41.81-.9,1.46-1.55,2.08Zm2.26-4.05c-.05.56-.34.95-.82,1.22-.47.27-.94.53-1.42.78-.15.08-.33.13-.53.21-.19-.68-.37-1.31-.53-1.87,1.17-.59,2.3-1.17,3.47-1.76-.05.42-.12.92-.17,1.41Zm.07-2.66c.02.11-.04.28-.12.37-.63.73-2.42,1.69-3.47,1.85-.18-.65-.36-1.3-.53-1.88,1.28-.55,2.53-1.08,3.83-1.64.08.39.2.85.28,1.31Zm-.67-2.22c.03.06-.04.24-.12.29-1.05.76-2.23,1.21-3.53,1.51-.19-.69-.38-1.35-.56-2.01,1.13-.37,2.25-.73,3.46-1.12.22.39.5.85.75,1.32Z"/>
    <path class="cls-1" d="m9.38,3.9c1.14.31,2.31.33,3.46.1.41-.08.83-.24,1.19-.45.4-.24.41-.7.06-.98-.14-.11-.45-.19-.57-.11-.25.17-.08.38.09.55,0,0,0,.05-.03.14-1.51.5-3.03.5-4.61-.03.06-.11.11-.15.11-.19,0-.15.03-.37-.05-.42-.09-.07-.32-.04-.43.04-.37.25-.39.72-.03.98.24.18.53.31.82.39Z"/>
    <g>
      <path class="cls-1" d="m5.13,22.23c-.88,0-1.58.71-1.58,1.6,0,.86.71,1.56,1.57,1.57.87.01,1.6-.72,1.6-1.59,0-.88-.71-1.59-1.59-1.58Zm.7,2.22c-.3.33-.8.4-1.18.17-.39-.24-.56-.73-.4-1.16.16-.42.55-.63,1.08-.55-.16.26-.3.48-.45.72.17.11.31.21.5.33.17-.22.33-.44.49-.66.28.38.26.81-.04,1.14Z"/>
      <path class="cls-1" d="m7.66,23.69s0,0,0,0c0,0,0-.01,0-.02-.08-1.33-1.17-2.38-2.52-2.38-.05,0-.1.01-.16.02h0s0,0,0,0c0,0,0,0-.01,0h0c-.13.01-.24.17-.24.36s.11.35.24.36h0c.06,0,.11,0,.17,0,.96,0,1.73.75,1.79,1.69h0c.02.11.17.2.36.2s.34-.09.36-.2h0s0,0,0-.01Z"/>
    </g>
    <g>
      <path class="cls-1" d="m17.01,22.44c-.88,0-1.58.71-1.58,1.6,0,.86.71,1.56,1.57,1.57.87.01,1.6-.72,1.6-1.59,0-.88-.71-1.59-1.59-1.58Zm.7,2.22c-.3.33-.8.4-1.18.17-.39-.24-.56-.73-.4-1.16.16-.42.55-.63,1.08-.55-.16.26-.3.48-.45.72.17.11.31.21.5.33.17-.22.33-.44.49-.66.28.38.26.81-.04,1.14Z"/>
      <path class="cls-1" d="m19.54,23.89s0,0,0,0c0,0,0-.01,0-.02-.08-1.33-1.17-2.38-2.52-2.38-.05,0-.1.01-.16.02h0s0,0,0,0c0,0,0,0-.01,0h0c-.13.01-.24.17-.24.36s.11.35.24.36h0c.06,0,.11,0,.17,0,.96,0,1.73.75,1.79,1.69h0c.02.11.17.2.36.2s.34-.09.36-.2h0s0,0,0-.01Z"/>
    </g>
  </g>
</svg>