<?xml version="1.0" encoding="UTF-8"?>
<svg id="_图层_2" data-name="图层 2" xmlns="http://www.w3.org/2000/svg" viewBox="0 0 38.05 25.61">
  <defs>
    <style>
      .cls-1 {
        fill: #231815;
      }
    </style>
  </defs>
  <g id="_图层_1-2" data-name="图层 1">
    <g>
      <path class="cls-1" d="m35.58,0H2.46C1.1,0,0,1.1,0,2.46v20.69c0,1.36,1.1,2.46,2.46,2.46h33.12c1.36,0,2.46-1.1,2.46-2.46V2.46c0-1.36-1.1-2.46-2.46-2.46Zm.98,23.15c0,.54-.44.98-.98.98H2.46c-.54,0-.98-.44-.98-.98V2.46c0-.54.44-.98.98-.98h33.12c.54,0,.98.44.98.98v20.69Z"/>
      <path class="cls-1" d="m4.15,10.88c.41,0,.74-.33.74-.74l-.74-.02-.74.02c0,.41.33.74.74.74Z"/>
      <path class="cls-1" d="m3.84,10.11h1.04v-.04c0-.41-.33-.74-.74-.74s-.74.33-.74.74v.05h.62-.18Z"/>
      <polygon class="cls-1" points="4.89 10.12 4.89 10.1 4.26 10.12 4.89 10.12"/>
      <path class="cls-1" d="m31.71,15.61c-1.93,0-3.5,1.57-3.5,3.5s1.57,3.5,3.5,3.5,3.5-1.57,3.5-3.5-1.57-3.5-3.5-3.5Zm0,5.51c-1.11,0-2.02-.9-2.02-2.02,0-.85.53-1.58,1.28-1.87v2.37h1.48v-2.37c.75.3,1.28,1.02,1.28,1.87,0,1.11-.9,2.02-2.02,2.02Z"/>
      <path class="cls-1" d="m30.12,14.37c.58,0,1.06-.47,1.06-1.06s-.47-1.06-1.06-1.06-1.06.47-1.06,1.06.47,1.06,1.06,1.06Z"/>
      <path class="cls-1" d="m33.81,14.37c.58,0,1.06-.47,1.06-1.06s-.47-1.06-1.06-1.06-1.06.47-1.06,1.06.47,1.06,1.06,1.06Z"/>
      <path class="cls-1" d="m30.12,10.23c.58,0,1.06-.47,1.06-1.06s-.47-1.06-1.06-1.06-1.06.47-1.06,1.06.47,1.06,1.06,1.06Z"/>
      <path class="cls-1" d="m33.81,10.23c.58,0,1.06-.47,1.06-1.06s-.47-1.06-1.06-1.06-1.06.47-1.06,1.06.47,1.06,1.06,1.06Z"/>
      <path class="cls-1" d="m33.83,2.6c-.08,0-.17,0-.26,0h-.74v1.48h.74c.1,0,.2,0,.29,0,.06,0,.13,0,.19,0,.04.43.06,1.24.05,1.91v.74s1.47.02,1.47.02v-.74c.05-2.53-.18-2.8-.33-2.98-.38-.44-.9-.43-1.4-.43Z"/>
      <rect class="cls-1" x="30.23" y="2.6" width="1.78" height="1.48"/>
      <path class="cls-1" d="m27.09,18.23V6.31c0-1.36-1.09-2.46-2.44-2.46H5.84c-1.34,0-2.44,1.1-2.44,2.46v1.91c0,.41.33.74.74.74s.74-.33.74-.74v-1.91c0-.54.43-.98.96-.98h18.81c.53,0,.96.44.96.98v.79c-1.4.48-2.37,1.8-2.37,3.28v5.75c0,1.5.97,2.8,2.37,3.28v.78c0,.54-.43.98-.96.98H5.84c-.53,0-.96-.44-.96-.98v-8.12c0-.41-.33-.74-.74-.74s-.74.33-.74.74v8.12c0,1.36,1.09,2.46,2.44,2.46h18.81c1.34,0,2.44-1.1,2.44-2.46v-1.86l.02-.1h-.02Zm-2.37-2.1v-5.75c0-.67.35-1.28.89-1.64v9.03c-.53-.37-.89-.97-.89-1.63Z"/>
    </g>
  </g>
</svg>