<?xml version="1.0" encoding="UTF-8"?>
<svg id="_图层_2" data-name="图层 2" xmlns="http://www.w3.org/2000/svg" viewBox="0 0 30.3 28.35">
  <defs>
    <style>
      .cls-1 {
        fill: #231815;
      }
    </style>
  </defs>
  <g id="_图层_1-2" data-name="图层 1">
    <g>
      <g>
        <g>
          <path class="cls-1" d="m3.12,28.35s0,0-.01,0c-.37,0-.67-.32-.67-.7,0,0,0-.02,0-.03h0c.03-1.24.37-12.32,2.87-18.75.1-.26.35-.43.64-.43h6.78c.38,0,.68.31.68.68s-.31.68-.68.68h-6.31c-2.03,5.61-2.5,14.5-2.6,17.18h16.7c-.13-8.17-1.41-13.66-1.42-13.72-.05-.2,0-.42.13-.58l2.29-2.88h-5.23c-.38,0-.68-.31-.68-.68s.31-.68.68-.68h6.65c.26,0,.5.15.61.39.11.24.08.52-.08.72l-2.96,3.73c.29,1.35,1.33,6.73,1.4,14.38,0,.18-.07.36-.2.49-.13.13-.3.2-.48.2H3.24s-.08.01-.12.01Z"/>
          <path class="cls-1" d="m3.44,22.59l-.56-.39c-1.81-1.28-2.89-3.37-2.89-5.59,0-3.06,2.05-5.77,4.99-6.6l.66-.18.37,1.31-.66.18c-2.35.66-4,2.84-4,5.28,0,1.77.86,3.45,2.31,4.48l.56.39-.79,1.11Z"/>
          <path class="cls-1" d="m17.71,9.37c-.95-2.18-3.1-3.59-5.48-3.59s-4.49,1.39-5.45,3.53l-1.24-.56c1.18-2.63,3.81-4.33,6.7-4.33s5.56,1.73,6.73,4.41l-1.25.55Z"/>
          <path class="cls-1" d="m12.22,4.07c-.54,0-.99-.44-.99-.99s.44-.99.99-.99.99.44.99.99-.44.99-.99.99Z"/>
          <rect class="cls-1" x="2.51" y="23.84" width="19.09" height="1.36"/>
          <path class="cls-1" d="m13.46,23.29h-2.28c-1.46,0-2.6-1.11-2.6-2.54v-7.78c0-1.43,1.19-2.64,2.6-2.64h2.28c1.42,0,2.62,1.21,2.62,2.64v1.39h-1.36v-1.39c0-.68-.58-1.27-1.25-1.27h-2.28c-.67,0-1.23.58-1.23,1.27v7.78c0,.66.54,1.17,1.23,1.17h2.28c.7,0,1.25-.51,1.25-1.17v-5.03h1.36v5.03c0,1.4-1.17,2.54-2.62,2.54Z"/>
          <rect class="cls-1" x="8.92" y="12.8" width="3.95" height="1.36"/>
          <rect class="cls-1" x="8.92" y="16.2" width="3.95" height="1.36"/>
          <rect class="cls-1" x="8.92" y="19.48" width="3.95" height="1.36"/>
        </g>
        <path class="cls-1" d="m24.26,18.76s-.03,0-.05,0c-1.02-.01-1.91-.43-2.5-1.19l-.42-.54,1.08-.84.42.54c.42.54,1.01.66,1.44.66.74,0,1.48-.32,1.9-.83.41-.5.59-1.31.47-2.05-.09-.54-.34-.96-.68-1.17-.27-.17-.39-.5-.29-.8.1-.3.4-.49.72-.46.63.07,1.33-.24,1.87-.81.54-.57.81-1.3.71-1.9-.12-.73-.51-1.36-1.1-1.77-.57-.4-1.26-.56-1.94-.44-.28.05-.56-.08-.71-.33-.14-.25-.11-.56.07-.78.53-.63.64-.99.5-1.56-.28-1.16-1.26-1.48-1.67-1.56-.93-.19-1.89.14-2.41.82-.18.24-.5.33-.78.23-.28-.11-.46-.39-.44-.69.04-.57-.16-1.04-.59-1.4-.59-.49-1.43-.61-1.94-.48-.32.08-.93.49-1.24,1.11-.18.37-.21.73-.07,1.06l.26.63-1.26.52-.26-.63c-.29-.71-.26-1.46.1-2.19.5-1,1.44-1.65,2.11-1.82,1.03-.27,2.3.03,3.16.75.4.33.69.73.88,1.18.79-.46,1.78-.63,2.75-.43,1.38.28,2.39,1.25,2.72,2.57.16.65.1,1.19-.08,1.65.58.1,1.13.33,1.62.68.89.63,1.47,1.57,1.66,2.66.17,1.03-.22,2.17-1.06,3.06-.46.49-1.01.85-1.59,1.05.16.3.27.65.33,1.02.19,1.13-.1,2.33-.76,3.14-.67.82-1.79,1.33-2.92,1.33Z"/>
        <rect class="cls-1" x="19.93" y="6.82" width="2.68" height="1.36" transform="translate(-.1 14.73) rotate(-38.12)"/>
        <rect class="cls-1" x="18.05" y="5.72" width="3.37" height="1.36" transform="translate(7.68 23.28) rotate(-72.46)"/>
      </g>
      <path class="cls-1" d="m14.45,9.87s0,0-.01,0c-.23,0-.44-.12-.56-.31-.14-.22-.16-.49-.03-.72.12-.22.35-.36.6-.36s.49.15.61.37c.12.23.1.51-.05.72-.13.18-.34.29-.56.29Z"/>
    </g>
  </g>
</svg>