<?xml version="1.0" encoding="UTF-8"?>
<svg id="Capa_3" data-name="Capa 3" xmlns="http://www.w3.org/2000/svg" viewBox="0 0 863.44 197.66">
  <defs>
    <style>
      .cls-1 {
        fill: #fd5000;
        stroke-width: 0px;
      }
    </style>
  </defs>
  <path class="cls-1" d="m831.49,27.95v62c0,11.05-11.9,18.83-26.57,18.83s-26.35-7.78-26.57-18.83V27.95h-31.95v62.32s.04-31.88.02,0c-.02,32.01,25.25,48.35,50.85,48.33,13.2,0,25.22-2.37,34.23-7.54v14.06c0,9.78-7.11,20.72-17.41,20.72h-54.51s0,31.82,0,31.82h56.12c26.37,0,47.75-23.29,47.75-49.66V27.95h-31.95Z"/>
  <path class="cls-1" d="m84.67,86.27c0,10.88-1.82,19.24-5.42,24.86-4.09,6.38-10.46,9.49-19.49,9.49-12.37,0-25.83-6.73-26.48-25.64l-.05-1.54H.04l-.03,1.56c-.29,15.77,4.79,29.44,14.69,39.54,10.97,11.17,26.97,17.33,45.06,17.33s32.08-5.74,42.44-16.61c10.44-10.95,15.96-26.56,15.96-45.17V0h-33.5v86.27Z"/>
  <path class="cls-1" d="m224.88,38.85c-6.94-6.27-17.88-12.66-33.67-12.66s-30.96,6.39-42.24,17.99c-11.36,11.69-17.62,27.36-17.62,44.13s6.26,31.72,17.61,43.52c11.41,11.86,26.41,18.38,42.25,18.38,12.99,0,24.55-4.23,33.67-12.28v10.63h31.95V28l-31.95.18v10.67Zm1.77,49.47c0,17.72-14.91,32.69-32.56,32.69-8.89,0-17.15-3.44-23.26-9.69-6-6.15-9.31-14.32-9.31-23s3.31-16.91,9.31-23.12c6.11-6.32,14.37-9.8,23.25-9.8,17.65,0,32.56,15.07,32.56,32.91"/>
  <polygon class="cls-1" points="519.66 27.95 481.82 27.95 437.69 83.75 437.69 0 405.74 0 405.74 148.57 437.69 148.57 437.69 92.55 484.99 148.57 522.93 148.57 471.99 88.23 519.66 27.95"/>
  <path class="cls-1" d="m704.56,27.95c-26.37,0-47.75,21.38-47.75,47.75v72.86h31.95v-69.98c0-9.78,7.11-18.81,17.41-18.81h27.03v-31.79s-28.11-.03-28.65-.03"/>
  <path class="cls-1" d="m362.28,102.12l-.31.73c-5.03,11.89-15.89,19.27-28.33,19.27-18.06,0-32.76-15.2-32.76-33.89s14.69-34.12,32.76-34.12c12.12,0,22.98,7.4,28.35,19.31l.31.69,30.16-8.08-.52-1.33c-9.61-24.5-32.49-40.32-58.29-40.32-16.91,0-32.84,6.56-44.84,18.47-12.12,12.03-18.79,28.14-18.79,45.39s6.52,32.73,18.35,44.75c11.99,12.18,28.07,18.88,45.28,18.88,25.91,0,48.79-15.74,58.29-40.1l.6-1.53-30.25-8.11Z"/>
  <path class="cls-1" d="m642.21,76.12c-5.71-29.98-31.89-51.74-62.24-51.74-16.91,0-32.84,6.56-44.84,18.47-12.12,12.03-18.79,28.15-18.79,45.39s6.52,32.73,18.35,44.75c11.99,12.18,28.07,18.88,45.28,18.88,11.44,0,23.46-3.04,33.84-8.57,11.17-5.94,19.6-14.21,24.4-23.91l.17-.34-29.27-7.84c-7.23,7.03-18.3,11.37-29.13,11.37-15.44,0-27.05-8.32-30.74-21.87h92.91l.29-1.21c1.69-7.17,1.61-15.05-.21-23.39m-92.91-1.05c3.47-10.95,13.9-21.41,30.44-21.41s26.75,10.46,30.21,21.41h-60.65Z"/>
</svg>