<?xml version="1.0" encoding="UTF-8"?>
<svg id="_图层_2" data-name="图层 2" xmlns="http://www.w3.org/2000/svg" viewBox="0 0 29.76 27.49">
  <defs>
    <style>
      .cls-1 {
        fill: #231815;
      }
    </style>
  </defs>
  <g id="_图层_1-2" data-name="图层 1">
    <g>
      <path class="cls-1" d="m.62,7.45c.34,0,.62-.28.62-.62v-.08c0-.34-.28-.62-.62-.62s-.62.28-.62.62v.08c0,.34.28.62.62.62Z"/>
      <path class="cls-1" d="m26.93,21.4c1.99-.9,2.89-2.21,2.48-3.6,0-.02-.01-.04-.02-.05-.32-.81-.81-1.1-1.17-1.19-.23-.06-.44-.06-.63-.03-.02-.35-.04-.59-.04-.62-.03-.31-.3-.55-.62-.55h-9.41c-.31,0-.58.23-.61.54-.01.1-.2,1.64.12,3.27v.16h.03c.2.93.56,1.88,1.22,2.59.09.09.19.18.3.26h-2.23v-13.25h3.72v1.61c0,.34.28.62.62.62h2.97c.34,0,.62-.28.62-.62v-1.61h.99c.34,0,.62-.27.62-.62,0-.04,0-.45,0-.99h1.03c.23.51.75.87,1.35.87.82,0,1.49-.67,1.49-1.49s-.67-1.49-1.49-1.49c-.6,0-1.11.36-1.35.86h-1.03c0-.7,0-1.39,0-1.81-.03-1.44-1.41-2.4-2.68-2.4h-6.85v-.25c0-.89-.72-1.61-1.61-1.61H1.61C.72,0,0,.72,0,1.61v3.45c0,.34.28.62.62.62s.62-.28.62-.62V1.61c0-.2.17-.37.37-.37h13.13c.2,0,.37.17.37.37v24.27c0,.2-.17.37-.37.37H1.61c-.2,0-.37-.17-.37-.37V8.45c0-.34-.28-.62-.62-.62s-.62.28-.62.62v17.44c0,.89.72,1.61,1.61,1.61h26.75c.17,0,.33-.07.45-.19.12-.12.18-.28.17-.45,0,0-.03-.81,0-2.01.02-.69-.22-1.3-.67-1.77-.63-.65-1.57-.89-2.26-.9.17-.17.33-.37.49-.59l.4-.18Zm.66-3.58c.08-.05.21-.1.31-.07.11.03.23.19.33.43.17.64-.33,1.19-.89,1.58.16-.65.23-1.33.26-1.94Zm.68-11.38c.14,0,.25.11.25.25s-.11.25-.25.25-.25-.11-.25-.25.11-.25.25-.25Zm-5.24,3.46h-1.73v-.99h1.73v.99Zm-6.69-6.81h6.85c.67,0,1.43.51,1.44,1.19.01.74,0,2.47,0,3.39h-8.3V3.1Zm11.07,20.85c.22.23.33.52.32.87-.01.59-.01,1.08-.01,1.44h-11.43c.03-.12.05-.24.05-.37v-2.48h9.62c.43,0,1.07.14,1.45.53Zm-1.74-3.29c-.75,1.21-1.42,1.39-3.34,1.39v.12h0v-.12c-.99,0-2.66-.46-3.14-.98-.43-.47-.7-1.1-.86-1.75h7.84c-.11.49-.26.96-.49,1.33Zm.69-3.31c0,.23-.01.48-.03.74h-8.21c-.05-.58-.05-1.11-.03-1.49h8.26c0,.17.01.38.01.6l-.07.06.07.09Z"/>
      <path class="cls-1" d="m7.62,21.2c0,1.34,1.09,2.44,2.44,2.44s2.44-1.09,2.44-2.44-1.09-2.44-2.44-2.44-2.44,1.09-2.44,2.44Zm2.44-1.2c.66,0,1.2.54,1.2,1.2s-.54,1.2-1.2,1.2-1.2-.54-1.2-1.2.54-1.2,1.2-1.2Z"/>
      <rect class="cls-1" x="9.41" y="5.26" width="1.24" height="8.42"/>
    </g>
  </g>
</svg>