<?xml version="1.0" encoding="UTF-8"?>
<svg id="_图层_2" data-name="图层 2" xmlns="http://www.w3.org/2000/svg" viewBox="0 0 27.2 27.3">
  <defs>
    <style>
      .cls-1 {
        fill: #231815;
      }
    </style>
  </defs>
  <g id="_图层_1-2" data-name="图层 1">
    <g>
      <path class="cls-1" d="m9.03,21.57c.26,1.58-.54,3.14-1.96,3.87-1.42.73-3.15.46-4.28-.68-1.13-1.13-1.4-2.86-.68-4.28.73-1.42,2.29-2.22,3.87-1.96.4-.43.76-.84,1.08-1.23-1.86-.63-3.91-.16-5.3,1.23-2,2-2,5.27,0,7.27,2,2.01,5.27,2.01,7.27,0,1.39-1.39,1.86-3.44,1.23-5.3-.39.32-.8.68-1.23,1.08Z"/>
      <path class="cls-1" d="m18.42,6.07c-.25-1.58.54-3.14,1.96-3.87,1.42-.73,3.15-.45,4.28.68,1.13,1.13,1.4,2.86.68,4.28-.73,1.42-2.29,2.22-3.87,1.96-.41.44-.76.85-1.07,1.23,1.85.63,3.9.15,5.28-1.23,2.01-2.01,2.01-5.27,0-7.27-2.01-2.01-5.27-2.01-7.27,0-1.38,1.38-1.86,3.43-1.23,5.29.37-.3.78-.65,1.23-1.07Z"/>
      <path class="cls-1" d="m6.84,10c-.33-.39-.7-.8-1.1-1.22-1.58.26-3.15-.53-3.88-1.95-.73-1.42-.46-3.16.67-4.29,1.13-1.13,2.87-1.4,4.29-.67,1.42.73,2.21,2.3,1.95,3.88.42.4.83.76,1.22,1.1.65-1.86.18-3.94-1.22-5.33C6.77-.5,3.51-.5,1.5,1.5-.5,3.51-.5,6.77,1.5,8.78c1.4,1.39,3.47,1.87,5.33,1.22Z"/>
      <path class="cls-1" d="m13.77,12.27c-.72,0-1.33.51-1.47,1.21-.14.7.24,1.41.9,1.68.66.27,1.42.04,1.82-.55.4-.6.32-1.39-.19-1.9-.28-.28-.66-.44-1.06-.44Z"/>
      <path class="cls-1" d="m20.34,17.11c.31.4.67.81,1.06,1.23,1.58-.25,3.14.54,3.86,1.96.73,1.42.45,3.15-.68,4.28-1.13,1.13-2.86,1.4-4.28.68-1.42-.73-2.22-2.28-1.97-3.86-.43-.39-.84-.75-1.24-1.06-.62,1.85-.14,3.89,1.24,5.27,2.01,2.01,5.27,2.01,7.27,0,2-2.01,2.01-5.27,0-7.27-1.38-1.38-3.42-1.86-5.27-1.24Z"/>
      <path class="cls-1" d="m20.96,22.54c.09.09.29.33.34.37l.02.02s.02.02.04.03c.51.46,1.25.5,1.68.06.4-.4.4-1.08.02-1.58-.1-.11-.21-.22-.33-.32-.04-.04-.08-.07-.09-.08-1.18-1.09-5.02-4.82-4.94-7,0-.09,0-.47,0-.58-.01-2.19,3.77-5.87,4.94-6.95.01-.01.05-.04.09-.08.11-.1.22-.21.33-.32.38-.5.39-1.18-.02-1.58-.43-.43-1.17-.4-1.68.06-.01.01-.03.02-.04.03,0,0-.01.01-.02.02-.04.04-.25.28-.34.37-1.15,1.23-4.55,4.68-6.7,4.84-.17.01-.75.01-.89,0-2.2-.09-5.8-3.79-6.86-4.94-.01-.01-.04-.05-.08-.09-.1-.11-.21-.22-.32-.33-.5-.38-1.18-.39-1.58.02-.43.43-.4,1.17.06,1.68.01.01.02.03.03.04l.02.02s.28.25.37.34c1.2,1.12,4.5,4.37,4.82,6.53.03.23.03,1.18-.03,1.47-.46,2.15-3.63,5.27-4.79,6.36-.09.09-.33.29-.37.34l-.02.02s-.02.02-.03.04c-.46.51-.5,1.25-.06,1.68.4.4,1.08.4,1.58.02.11-.1.22-.21.32-.33.04-.04.07-.08.08-.09,1.04-1.12,4.49-4.68,6.7-4.93.2-.02.91-.02,1.09,0,2.15.2,5.52,3.62,6.66,4.84Zm-5.54-7.12c-.67.67-1.67.87-2.54.51-.87-.36-1.44-1.21-1.44-2.16s.57-1.8,1.44-2.16c.87-.36,1.88-.16,2.54.51.44.44.69,1.03.69,1.65s-.25,1.21-.69,1.65Z"/>
    </g>
  </g>
</svg>