<?xml version="1.0" encoding="UTF-8"?>
<svg id="_图层_2" data-name="图层 2" xmlns="http://www.w3.org/2000/svg" viewBox="0 0 25.24 27.96">
  <defs>
    <style>
      .cls-1 {
        fill: #231815;
      }
    </style>
  </defs>
  <g id="_图层_1-2" data-name="图层 1">
    <g>
      <path class="cls-1" d="m24.12,5.78c-.05-.62-.24-1.65-.96-2.21-.62-.48-1.46-.55-2.14-.51-.42-1.79-2-3.06-3.87-3.06H3.98C1.78,0,0,1.78,0,3.98v20.01c0,2.19,1.78,3.98,3.98,3.98h13.17c2.19,0,3.98-1.78,3.98-3.98V4.17c.43-.02,1,.01,1.35.28.37.29.49.97.53,1.38-.57.19-.97.73-.97,1.35v1.8c0,.79.64,1.43,1.43,1.43h.36c.79,0,1.43-.64,1.43-1.43v-1.8c0-.68-.48-1.25-1.12-1.39Zm-4.87,18.49c0,1.05-.85,1.9-1.9,1.9H3.82c-1.05,0-1.9-.85-1.9-1.9V3.74c0-1.05.85-1.9,1.9-1.9h13.53c1.05,0,1.9.85,1.9,1.9v20.54Zm4.88-15.3c0,.17-.14.31-.31.31h-.36c-.17,0-.31-.14-.31-.31v-1.8c0-.17.14-.31.31-.31h.36c.17,0,.31.14.31.31v1.8Z"/>
      <path class="cls-1" d="m10.61,3.48c-.49,0-.85.27-.85.62v19.75c0,.35.37.62.85.62s.85-.27.85-.62V4.11c0-.35-.37-.62-.85-.62Z"/>
    </g>
  </g>
</svg>