<?xml version="1.0" encoding="UTF-8"?>
<svg id="_图层_2" data-name="图层 2" xmlns="http://www.w3.org/2000/svg" viewBox="0 0 27.69 27.3">
  <defs>
    <style>
      .cls-1 {
        fill: #231815;
      }
    </style>
  </defs>
  <g id="_图层_1-2" data-name="图层 1">
    <g>
      <path class="cls-1" d="m27.04,20.18h-1.7c-.17-4.33-.62-15.97-.64-16.4,0-2.09-1.7-3.78-3.77-3.78H7.15c-2.07,0-3.76,1.69-3.77,3.78l-.17,2.98c-.02.36.25.66.61.68.36.02.66-.25.68-.61l.17-3s0-.02,0-.04c0-1.38,1.11-2.5,2.48-2.5h13.78c1.37,0,2.48,1.12,2.48,2.5,0,0,0,.02,0,.03,0,0,.52,13.28.66,17.03.01.35.3.62.65.62h1.68v4.53H1.29v-4.53h1.78c.34,0,.63-.27.65-.61.04-.75.11-2.07.18-3.6.1-2.13.23-4.79.35-6.94.02-.36-.25-.66-.61-.68-.36-.02-.66.25-.68.61-.12,2.16-.25,4.81-.35,6.95-.06,1.17-.11,2.22-.15,2.98H.65c-.36,0-.65.29-.65.65v5.82c0,.36.29.65.65.65h26.39c.36,0,.65-.29.65-.65v-5.82c0-.36-.29-.65-.65-.65Z"/>
      <path class="cls-1" d="m3.66,9.26s.02,0,.04,0c.13,0,.26-.04.36-.11.15-.1.29-.27.31-.56.02-.36-.25-.66-.61-.68-.14,0-.28.03-.39.1-.16.09-.3.27-.32.57-.02.36.25.66.61.68Z"/>
      <path class="cls-1" d="m13.91,3.91c-4.54,0-8.23,3.69-8.23,8.23s3.69,8.23,8.23,8.23c1.98,0,3.8-.7,5.22-1.87h.02v-.02c1.83-1.51,2.99-3.79,2.99-6.34,0-4.54-3.69-8.23-8.23-8.23Zm6.94,8.23c0,.18-.01.36-.03.54H7c-.01-.18-.03-.36-.03-.54,0-.12.01-.25.02-.37h13.84c0,.12.02.24.02.37Zm-2.21,5.06h-9.45c-.31-.29-.59-.6-.84-.94l11.12.02c-.25.33-.53.64-.83.93Zm-11.05-2.24c-.14-.32-.26-.65-.36-1h13.37c-.1.35-.22.69-.36,1.02l-12.65-.02Zm-.4-4.49c.09-.36.2-.7.34-1.03h12.78c.14.33.25.68.34,1.03H7.18Zm11.75-3.1c.23.24.44.5.64.78h-11.33c.19-.27.41-.53.64-.78h10.05Zm-1.66-1.29h-6.73c1-.56,2.14-.88,3.36-.88s2.37.32,3.36.88Zm-3.36,13c-.98,0-1.92-.21-2.77-.58h5.53c-.85.37-1.78.58-2.77.58Z"/>
      <path class="cls-1" d="m4.76,23.15c0,1.3,1.05,2.35,2.35,2.35.75,0,1.47-.37,1.91-.98.21-.29.14-.69-.15-.9-.29-.21-.69-.14-.9.15-.2.28-.52.44-.86.44-.58,0-1.06-.47-1.06-1.06s.47-1.06,1.06-1.06c.09,0,.18.01.27.03.35.09.7-.11.79-.46s-.11-.7-.46-.79c-.2-.05-.4-.08-.6-.08-1.3,0-2.35,1.05-2.35,2.35Z"/>
      <path class="cls-1" d="m8.42,22.01c-.33.14-.48.52-.34.85,0,.02.01.03.02.05.1.26.34.42.61.42.08,0,.15-.01.23-.04.33-.13.5-.5.38-.83-.01-.04-.03-.07-.04-.11-.14-.33-.52-.48-.85-.34Z"/>
      <path class="cls-1" d="m19.75,21.83c.09,0,.18.01.27.03.35.09.7-.11.79-.46.09-.35-.11-.7-.46-.79-.2-.05-.4-.08-.6-.08-1.3,0-2.35,1.05-2.35,2.35s1.05,2.35,2.35,2.35c.75,0,1.47-.37,1.91-.98.21-.29.14-.69-.15-.9s-.69-.14-.9.15c-.2.28-.52.44-.86.44-.58,0-1.06-.47-1.06-1.06s.47-1.06,1.06-1.06Z"/>
      <path class="cls-1" d="m21.95,22.2s-.03-.07-.04-.11c-.14-.33-.52-.48-.85-.34-.33.14-.48.52-.34.85,0,.02.01.03.02.05.1.26.34.42.61.42.08,0,.15-.01.23-.04.33-.13.5-.5.38-.83Z"/>
    </g>
  </g>
</svg>