<?xml version="1.0" encoding="UTF-8"?>
<svg id="_图层_2" data-name="图层 2" xmlns="http://www.w3.org/2000/svg" viewBox="0 0 15.46 28.31">
  <defs>
    <style>
      .cls-1 {
        fill: #231815;
      }
    </style>
  </defs>
  <g id="_图层_1-2" data-name="图层 1">
    <g>
      <path class="cls-1" d="m12.51,0H2.95C1.32,0,0,1.32,0,2.95v22.42c0,1.62,1.32,2.95,2.95,2.95h9.56c1.62,0,2.95-1.32,2.95-2.95V2.95c0-1.62-1.32-2.95-2.95-2.95Zm1.19,25.37c0,.66-.53,1.19-1.19,1.19H2.95c-.66,0-1.19-.53-1.19-1.19V2.95c0-.66.53-1.19,1.19-1.19h1.47c.15.34.48.57.87.57h5.35c.39,0,.73-.24.87-.57h.99c.66,0,1.19.53,1.19,1.19v22.42Z"/>
      <path class="cls-1" d="m10.28,25.63h-4.8c-.12,0-.21.1-.21.21s.1.21.21.21h4.8c.12,0,.21-.1.21-.21s-.1-.21-.21-.21Z"/>
    </g>
  </g>
</svg>