<?xml version="1.0" encoding="UTF-8"?>
<svg id="_图层_2" data-name="图层 2" xmlns="http://www.w3.org/2000/svg" viewBox="0 0 28.88 27.49">
  <defs>
    <style>
      .cls-1 {
        fill: #231815;
      }
    </style>
  </defs>
  <g id="_图层_1-2" data-name="图层 1">
    <g>
      <path class="cls-1" d="m14.61,7.47c-5.52,0-10.01,4.49-10.01,10.01s4.49,10.01,10.01,10.01,10.01-4.49,10.01-10.01-4.49-10.01-10.01-10.01Zm8.38,10.01c0,4.62-3.76,8.38-8.38,8.38s-8.38-3.76-8.38-8.38,3.76-8.38,8.38-8.38,8.38,3.76,8.38,8.38Z"/>
      <path class="cls-1" d="m20,16.2c-.46.2-.54.56-.54,1.15,0,2.63-2.14,4.77-4.77,4.77s-4.77-2.14-4.77-4.77,2.14-4.77,4.77-4.77c1.33,0,2.26.58,3.19,1.22.41.28.73.32,1.06.13.28-.17.42-.36.42-.58,0-.61-1.05-1.29-1.37-1.48-.99-.6-2.13-.91-3.29-.91-3.53,0-6.4,2.87-6.4,6.4s2.87,6.4,6.4,6.4,6.4-2.9,6.4-6.46c0-.33,0-.58-.22-.82-.15-.17-.3-.27-.46-.31-.13-.03-.27-.02-.41.04Z"/>
      <path class="cls-1" d="m8.71,8.09c.4,0,.65-.34.65-.88l.04-4.54c.07-1.13,1.09-1.21,1.4-1.21l7.63.06c.58,0,.89.62.89,1.24l-.03,4.71c0,.51.21.77.61.77.45,0,.8-.36.8-.82V2.42c0-1.64-.36-2.42-2.39-2.42h-7.36c-2.03,0-3.1.84-3.1,2.42v4.85c0,.44.39.81.85.81Z"/>
      <path class="cls-1" d="m6.55,25.18h-3.59c-.61,0-1.5-.67-1.5-1.26v-13.19c0-.6.5-1.08,1.1-1.08l4.11.03c.44,0,.91-.21.91-.67s-.37-.82-.82-.82h-3.81c-2.05,0-2.96.79-2.96,2.55v13.19c0,1.48,1.44,2.88,2.96,2.88h3.59c.46,0,.82-.35.82-.81s-.36-.81-.82-.81Z"/>
      <path class="cls-1" d="m26.51,8.18h-2.79c-.46,0-.81.35-.81.81,0,.41.3.65.8.65h2.67c.58,0,.95.4.95,1.03l.06,13.25c0,.61-.31,1.26-.89,1.26h-3c-.46,0-.81.36-.81.81s.36.81.81.81h3c1.56,0,2.38-1.45,2.38-2.88v-13.19c0-1.57-.91-2.55-2.38-2.55Z"/>
      <path class="cls-1" d="m12.94,2.3c-1.92,0-2.14,1.32-2.14,2.31,0,1.31.92,2.31,2.14,2.31h2.84c1.27,0,2.26-1.01,2.26-2.31,0-1.51-.78-2.31-2.26-2.31h-2.84Zm.02,1.39h2.8c.47,0,.86.3.86.66v.26c0,.31-.05.54-.19.68-.13.14-.33.2-.6.2l-2.98-.06c-.18,0-.33-.06-.45-.2-.17-.18-.25-.45-.25-.89,0-.37.36-.67.82-.67Z"/>
      <path class="cls-1" d="m2.48,7.23h3.58c.48,0,.81-.3.81-.73s-.33-.73-.81-.73h-3.58c-.48,0-.81.3-.81.73s.33.73.81.73Z"/>
      <path class="cls-1" d="m19.81,14.22c-.44,0-.8.36-.8.8s.36.8.8.8.79-.36.79-.8-.36-.8-.79-.8Z"/>
    </g>
  </g>
</svg>