<?xml version="1.0" encoding="UTF-8"?>
<svg id="_图层_2" data-name="图层 2" xmlns="http://www.w3.org/2000/svg" viewBox="0 0 23.61 27.41">
  <defs>
    <style>
      .cls-1 {
        fill: #231815;
      }
    </style>
  </defs>
  <g id="_图层_1-2" data-name="图层 1">
    <g>
      <path class="cls-1" d="m23.58,9.51s-.38-1.11-1.27-2.17c-1.2-1.43-2.79-2.19-4.61-2.19-.13,0-.26,0-.4.01l-1.35-3.54c-.39-.97-1.39-1.62-2.49-1.62-.34,0-.67.06-.97.18l-.79.31c-1.31.52-2.01,2.08-1.54,3.37l-.18-.18-7.82,7.64.3.31C1.22,11.8.19,12.78,0,14.06c-.05.32.17.61.49.66.32.05.61-.17.66-.49.12-.84.85-1.47,1.7-1.47.95,0,1.72.77,1.72,1.72s-.77,1.72-1.72,1.72c-.28,0-.54-.06-.78-.19-.28-.15-.63-.03-.78.25-.15.28-.03.63.25.78.4.21.86.32,1.31.32.2,0,.4-.02.59-.06l-.46.46,4.85,4.85c-.26.26-.5.54-.71.85l-.04.06h-2.61c-.32,0-.58.26-.58.58v2.74c0,.32.26.58.58.58h16.22c.32,0,.58-.26.58-.58v-2.74c0-.32-.26-.58-.58-.58h-2.52l-.14-.2c-1.25-1.73-3.27-2.76-5.4-2.76-.9,0-1.78.19-2.59.53l.28-.28-4.95-4.95c.23-.41.37-.88.37-1.38,0-1.37-.97-2.52-2.26-2.81l7.06-6.9.32.79c-.14.14-4.81,4.64-5.86,5.63l-.42.4.8.84.42-.4c.89-.85,4.43-4.26,5.53-5.32l.32.76c-2.38,3.01-1.05,7.42-.99,7.61.05.16.16.29.31.35.08.03.16.05.24.05s.16-.02.23-.05l3.71-1.64c.48.43,1.1.68,1.74.68,1.44,0,2.61-1.17,2.63-2.61l3.75-1.65c.27-.12.41-.43.32-.71Zm-3.47,16.73H5.04v-1.58h15.07v1.58Zm-3.42-2.74h-8.14c1.04-1.14,2.51-1.8,4.07-1.8s3.03.67,4.07,1.8Zm-7.99-1.68l-4.72-4.72c.23-.1.43-.23.62-.38l4.7,4.7c-.21.12-.41.25-.61.39Zm8.19-8.5c-.16,0-.32-.03-.47-.08l1.82-.8c-.23.52-.74.89-1.35.89Zm1.56-2.25l-.18.02v.05s-6.68,2.95-6.68,2.95c-.26-1.26-.58-4.13,1.08-6.06,0,0,.02-.01.03-.02,0,0,.3-.32.74-.62.26-.18.33-.54.15-.81-.18-.26-.54-.33-.8-.15-.09.06-.17.13-.25.19l-1.29-3.13c-.29-.72.13-1.64.87-1.94l.79-.31c.17-.07.36-.1.55-.1.62,0,1.2.37,1.41.89l1.25,3.26c-.14.03-.28.06-.42.11-.31.09-.48.42-.38.72.08.25.31.41.55.41.06,0,.11,0,.17-.03.32-.1.61-.15.87-.18.03,0,.05,0,.08,0,.16-.02.31-.02.46-.03.05,0,.11,0,.16,0h.02s.04-.01.06-.01c0,0,.01,0,.02,0,2.77,0,4.1,2.11,4.57,3.09l-3.83,1.69Z"/>
      <path class="cls-1" d="m1.38,15.53c0-.11-.03-.22-.09-.31-.1-.19-.29-.31-.51-.31h0c-.32,0-.58.26-.58.58H.2c0,.26.21.62.6.62h0c.32,0,.58-.26.58-.58h0Z"/>
      <path class="cls-1" d="m17.14,7.06l-.57.08.17,1.14.57-.08c1.07-.16,2.18.36,2.53,1.18l.23.53,1.06-.45-.23-.53c-.55-1.3-2.17-2.1-3.76-1.87Z"/>
      <path class="cls-1" d="m14.37,5.7c-.25,0-.61.18-.63.57,0,0,0,.02,0,.03,0,.31.24.56.55.58,0,0,.02,0,.03,0,.09,0,.17-.02.24-.05.23-.08.39-.29.39-.55,0-.32-.26-.58-.58-.58Z"/>
      <path class="cls-1" d="m14.57,6.82s.03-.01.04-.02c-.02,0-.03.02-.05.02,0,0,0,0,0,0Z"/>
    </g>
  </g>
</svg>