<?xml version="1.0" encoding="UTF-8"?>
<svg id="_图层_2" data-name="图层 2" xmlns="http://www.w3.org/2000/svg" viewBox="0 0 30.58 25.99">
  <defs>
    <style>
      .cls-1 {
        fill: #231815;
      }
    </style>
  </defs>
  <g id="_图层_1-2" data-name="图层 1">
    <path class="cls-1" d="m30.13,5.04c-.29-.29-.68-.45-1.08-.45h-9.17L23.92.54c.09-.09.12-.23.07-.35C23.94.08,23.83,0,23.7,0h-.45C23.05,0,22.86.08,22.71.22l-4.36,4.36h-6.12L7.87.22C7.73.08,7.53,0,7.33,0h-.45c-.13,0-.24.08-.29.2-.05.12-.02.25.07.35l4.05,4.05H1.53c-.41,0-.79.16-1.08.45-.29.29-.45.68-.45,1.08v16.82c0,.84.68,1.53,1.53,1.53h2.29l-.42.85c-.07.15-.07.32.02.46.09.14.24.22.4.22h.29c.29,0,.55-.16.68-.42l.55-1.11h19.88l.55,1.11.05.08c.14.21.38.34.64.34h.36c.15-.03.28-.12.35-.25.07-.13.07-.29,0-.43l-.42-.85h2.29c.41,0,.79-.16,1.08-.45.29-.29.45-.68.45-1.08V6.12c0-.41-.16-.79-.45-1.08Zm-1.08,17.14c0,.2-.08.4-.22.54-.14.14-.34.22-.54.22H2.29c-.2,0-.4-.08-.54-.22-.14-.14-.22-.34-.22-.54v-.76h27.52v.76Zm0-2.29H1.53V6.88c0-.2.08-.4.22-.54.14-.14.34-.22.54-.22h25.99c.2,0,.4.08.54.22.14.14.22.34.22.54v13Z"/>
  </g>
</svg>